<?xml version="1.0" encoding="UTF-8"?>
<!-- Generator: visioncortex VTracer -->
<svg id="svg" version="1.1" xmlns="http://www.w3.org/2000/svg" style="display: block;" viewBox="0 0 770 770"><path d="M0 0 C10.78448722 11.5726583 24.19140625 33.04532909 24.19140625 49.3515625 C32.68142102 50.95399006 41.19897955 52.36727668 49.73583984 53.69360352 C51.21403437 53.92513387 52.69157798 54.16085644 54.16845703 54.40063477 C56.33613792 54.7521958 58.50555502 55.09033729 60.67578125 55.42578125 C61.95163086 55.62776123 63.22748047 55.82974121 64.54199219 56.0378418 C68.95025809 56.41679695 73.26972523 56.75452842 76.9831543 54.04345703 C77.40636963 53.48770996 77.82958496 52.93196289 78.265625 52.359375 C78.75208496 51.72676758 79.23854492 51.09416016 79.73974609 50.44238281 C82.28562748 46.77556004 84.67510512 43.03442018 87.00390625 39.2265625 C88.05427609 37.54450171 89.10637029 35.86351651 90.16015625 34.18359375 C90.67320312 33.36455566 91.18625 32.54551758 91.71484375 31.70166016 C102.39797388 14.69838459 102.39797388 14.69838459 109.19140625 12.3515625 C116.50446421 11.71384397 122.53220108 13.71521083 129.44140625 15.9765625 C131.75485332 16.71595544 134.06865995 17.45422429 136.3828125 18.19140625 C138.10008545 18.74223877 138.10008545 18.74223877 139.85205078 19.30419922 C142.92104622 20.26676615 145.99791927 21.17122431 149.09375 22.04296875 C150.44001465 22.42557861 150.44001465 22.42557861 151.81347656 22.81591797 C153.46753824 23.28216566 155.12430918 23.73895638 156.78417969 24.18408203 C163.27219224 26.04200017 168.55322756 28.60364986 172.12890625 34.6015625 C174.11038317 41.59501045 173.1840595 48.69288143 172.28125 55.82421875 C172.09416959 57.39906106 171.90732776 58.97393174 171.72070312 60.54882812 C171.42568176 62.986869 171.12761402 65.42446784 170.82495117 67.86157227 C170.53118421 70.24402952 170.24933501 72.62767815 169.96875 75.01171875 C169.8760936 75.72965103 169.78343719 76.44758331 169.68797302 77.18727112 C169.11595623 82.11896207 169.27197961 86.45800928 170.19140625 91.3515625 C172.32087371 94.09603875 172.32087371 94.09603875 175.19140625 96.3515625 C176.21101251 97.31082133 177.22517464 98.27589322 178.234375 99.24609375 C179.28143569 100.21995169 180.32962283 101.19259985 181.37890625 102.1640625 C181.91193359 102.66615234 182.44496094 103.16824219 182.99414062 103.68554688 C185.65492043 106.47241957 185.65492043 106.47241957 189.19140625 107.3515625 C190.534292 108.96991199 191.87636629 110.58894019 193.21484375 112.2109375 C197.09609104 116.41434366 201.7064613 119.81974996 206.19140625 123.3515625 C206.98417969 124.10050781 207.77695312 124.84945312 208.59375 125.62109375 C211.22383797 127.37316739 212.86701696 128.00605347 216.03125 127.80957031 C221.16886675 126.7202655 225.91784111 124.3562964 230.69140625 122.2265625 C233.02446262 121.21550649 235.35779451 120.20508602 237.69140625 119.1953125 C239.85824456 118.24778827 242.02492726 117.29990802 244.19140625 116.3515625 C263.36645442 108.00161928 263.36645442 108.00161928 271.33203125 109.84765625 C277.75806078 112.41071001 280.59108258 117.75260654 284.19140625 123.3515625 C286.02038022 126.0152696 287.88715571 128.65174351 289.75390625 131.2890625 C290.25623779 132.00537842 290.75856934 132.72169434 291.27612305 133.4597168 C294.10683225 137.47952616 296.99716238 141.44142169 299.97265625 145.35546875 C300.60228271 146.18892822 301.23190918 147.0223877 301.88061523 147.88110352 C303.09642015 149.4844829 304.3219757 151.08053245 305.55883789 152.66772461 C309.50117749 157.88017851 313.67574419 163.85761837 312.93896484 170.69384766 C310.76890878 179.83193457 302.52344709 186.36313113 295.6328125 192.16796875 C290.14436516 197.07683605 285.04579061 202.41925172 279.87353516 207.65722656 C278.38194819 209.15963782 276.87194944 210.6437202 275.359375 212.125 C273.05949583 214.35115056 273.05949583 214.35115056 271.19140625 217.3515625 C271.52395204 222.85588054 272.732742 227.52653668 274.58984375 232.73828125 C274.82547028 233.40318069 275.0610968 234.06808014 275.30386353 234.75312805 C275.79923716 236.14517111 276.29858075 237.53580739 276.80175781 238.92504883 C277.56705829 241.04086519 278.31759902 243.16150096 279.06640625 245.28320312 C281.05044504 250.84676572 281.05044504 250.84676572 283.19140625 256.3515625 C283.53510254 257.2588208 283.87879883 258.1660791 284.23291016 259.10083008 C287.41704977 262.76009 291.58029464 263.30065297 296.19140625 264.3515625 C297.41470642 264.63397293 297.41470642 264.63397293 298.66271973 264.92208862 C301.15137732 265.46900055 303.6455284 265.97527369 306.14453125 266.47265625 C307.99880336 266.85430574 309.852967 267.23648262 311.70703125 267.61914062 C314.58482768 268.20834039 317.4632708 268.79343431 320.34375 269.36938477 C323.1549048 269.93366592 325.96225728 270.51441736 328.76953125 271.09765625 C329.62589172 271.26446396 330.4822522 271.43127167 331.36456299 271.60313416 C337.10554906 272.81223536 341.74316838 274.40026205 345.6171875 279.0703125 C351.3339532 290.55421188 349.47176622 305.79125916 349.54150391 318.32519531 C349.55816072 320.51670885 349.58557602 322.70816599 349.62353516 324.89941406 C349.6784076 328.09728481 349.70017793 331.2939091 349.71484375 334.4921875 C349.73751312 335.46319397 349.7601825 336.43420044 349.78353882 337.43463135 C349.7633818 343.95311083 348.53121324 348.38178508 344.19140625 353.3515625 C337.88720453 358.2503865 329.11618703 360.14144975 321.56640625 362.3515625 C319.26558437 363.04283353 316.96480304 363.73423954 314.6640625 364.42578125 C313.55691895 364.75497559 312.44977539 365.08416992 311.30908203 365.42333984 C307.19995302 366.64674693 303.09958828 367.89647041 299.00390625 369.1640625 C297.83472656 369.52113281 296.66554688 369.87820313 295.4609375 370.24609375 C294.38199219 370.61089844 293.30304687 370.97570312 292.19140625 371.3515625 C290.34095703 371.94517578 290.34095703 371.94517578 288.453125 372.55078125 C284.41536872 374.78000957 283.62514375 377.19437841 282.19140625 381.3515625 C281.46308181 383.89398227 280.79174421 386.40341932 280.18359375 388.97265625 C280.01264191 389.67624771 279.84169006 390.37983917 279.66555786 391.10475159 C279.30808524 392.58222111 278.95361962 394.06042117 278.60205078 395.53930664 C278.06821411 397.78146931 277.52313659 400.02067797 276.9765625 402.25976562 C276.62823374 403.70556731 276.28055587 405.15152599 275.93359375 406.59765625 C275.69296707 407.58553383 275.69296707 407.58553383 275.44747925 408.59336853 C273.19874122 416.85938707 273.19874122 416.85938707 274.31640625 424.9765625 C278.5164566 430.29662628 282.93063179 435.12760984 287.74804688 439.890625 C289.41815502 441.54277499 291.08604916 443.19714039 292.75390625 444.8515625 C293.31787109 445.40714844 293.88183594 445.96273438 294.46289062 446.53515625 C297.60680288 449.66068305 300.4632624 452.84741329 303.19140625 456.3515625 C305.31883265 458.53087735 307.44669901 460.68151742 309.7109375 462.71875 C312.75305098 466.07390419 313.97239317 469.86492305 314.19140625 474.3515625 C312.57199967 478.55209222 309.96353342 481.83418882 307.19140625 485.3515625 C306.0621875 486.83076172 306.0621875 486.83076172 304.91015625 488.33984375 C303.69209842 489.92766914 302.47361143 491.51524719 301.23974609 493.09082031 C297.71808728 497.59591057 294.40672023 502.22938995 291.12890625 506.9140625 C283.66826748 517.53606958 283.66826748 517.53606958 280.25390625 522.2265625 C279.58488281 523.15210938 278.91585937 524.07765625 278.2265625 525.03125 C275.06169622 528.63956204 272.42102804 530.07754045 267.73828125 531.12109375 C255.22172526 531.93439419 240.87522177 524.01073355 229.38671875 519.69140625 C228.31196289 519.29034668 227.23720703 518.88928711 226.12988281 518.47607422 C224.35357311 517.79630665 222.58621446 517.09142298 220.83886719 516.34033203 C216.17963318 514.36704894 213.07802834 513.9474248 208.19140625 515.3515625 C205.73706887 516.85926799 203.61552366 518.32609382 201.37890625 520.1015625 C200.07124915 521.10148652 198.76261011 522.10012736 197.453125 523.09765625 C196.76653809 523.62601074 196.07995117 524.15436523 195.37255859 524.69873047 C190.8081751 528.15752566 186.11476001 531.44292009 181.44604492 534.75878906 C173.26699589 540.07561559 173.26699589 540.07561559 167.19140625 547.3515625 C167.16954761 557.77813294 170.09918371 568.25663264 172.25561523 578.39868164 C172.74219728 580.69803909 173.21910313 582.99925675 173.6953125 585.30078125 C173.8452919 585.99056564 173.9952713 586.68035004 174.14979553 587.39103699 C175.53818106 594.13045878 176.46781587 601.21887939 172.82592773 607.35644531 C166.5061291 615.07046988 151.30823372 618.79818167 142.2277832 622.53027344 C139.62564119 623.6029084 137.03068781 624.6918047 134.43554688 625.78125 C112.7827996 634.76870668 112.7827996 634.76870668 104.87890625 632.4140625 C96.01812811 628.23172183 91.40515743 617.38674766 86.62890625 609.2890625 C85.51158656 607.39845591 84.3921995 605.50922702 83.26637268 603.62367249 C82.24709402 601.91623476 81.23548724 600.20422396 80.22436523 598.49194336 C76.53103529 592.57267809 76.53103529 592.57267809 71.19140625 588.3515625 C60.50174048 587.51818526 49.7669148 588.71561775 39.12890625 589.7265625 C38.44551178 589.78968628 37.76211731 589.85281006 37.05801392 589.91784668 C35.06915881 590.10387079 33.08142748 590.30178833 31.09375 590.5 C29.93351318 590.61520996 28.77327637 590.73041992 27.57788086 590.84912109 C19.9708547 591.8425847 19.9708547 591.8425847 14.19140625 596.3515625 C13.09616239 598.01799683 12.03708755 599.70845442 11.00390625 601.4140625 C7.45919155 607.08410402 3.44921945 612.20707067 -0.80859375 617.3515625 C-1.47246094 618.20363281 -2.13632812 619.05570313 -2.8203125 619.93359375 C-5.78251236 623.53595468 -9.24607772 626.36103857 -12.80859375 629.3515625 C-13.87013672 630.29708984 -13.87013672 630.29708984 -14.953125 631.26171875 C-35.49236836 648.86178589 -62.73936672 655.71786044 -89.34521484 654.06079102 C-116.7421234 651.89408046 -143.69296262 640.64786496 -162.80859375 620.3515625 C-162.80859375 619.6915625 -162.80859375 619.0315625 -162.80859375 618.3515625 C-163.79859375 618.0215625 -164.78859375 617.6915625 -165.80859375 617.3515625 C-167.67677723 615.24289072 -169.41051535 613.14444592 -171.12109375 610.9140625 C-171.61311279 610.27807129 -172.10513184 609.64208008 -172.61206055 608.98681641 C-188.02460231 588.79493533 -188.02460231 588.79493533 -189.08227539 578.75317383 C-189.32196045 577.96064209 -189.56164551 577.16811035 -189.80859375 576.3515625 C-191.94094619 575.36595435 -191.94094619 575.36595435 -194.62890625 575.1640625 C-195.63203857 575.02572998 -196.6351709 574.88739746 -197.66870117 574.74487305 C-199.284823 574.55018433 -199.284823 574.55018433 -200.93359375 574.3515625 C-229.30357778 570.26526479 -253.39159825 556.40820109 -270.82421875 533.4921875 C-277.02350974 524.9625556 -281.74688457 516.07361274 -285.80859375 506.3515625 C-286.19917969 505.44792969 -286.58976562 504.54429687 -286.9921875 503.61328125 C-287.80859375 501.3515625 -287.80859375 501.3515625 -287.80859375 498.3515625 C-288.46859375 498.0215625 -289.12859375 497.6915625 -289.80859375 497.3515625 C-292.89316327 486.70551353 -294.32297983 473.63187144 -293.68359375 462.5625 C-293.95625749 457.73976009 -295.03306088 455.05445593 -298.64453125 451.78125 C-299.81632778 450.91886136 -300.99654367 450.06783143 -302.18359375 449.2265625 C-324.6244647 432.38362678 -342.90635712 407.32000889 -347.328125 379.02734375 C-347.51523799 376.80418773 -347.66722657 374.57809552 -347.80859375 372.3515625 C-348.46859375 372.0215625 -349.12859375 371.6915625 -349.80859375 371.3515625 C-350.06738281 368.4309082 -350.06738281 368.4309082 -350.07421875 364.52734375 C-350.0761322 363.82949265 -350.07804565 363.13164154 -350.08001709 362.41264343 C-350.08138277 360.92377363 -350.07765978 359.43489208 -350.06933594 357.94604492 C-350.05884905 355.71829566 -350.06910684 353.49139225 -350.08203125 351.26367188 C-350.09624492 338.70887782 -348.90610358 326.58900203 -345.18359375 314.5390625 C-344.80642212 313.27848022 -344.80642212 313.27848022 -344.42163086 311.99243164 C-342.58224835 306.11823891 -340.16531564 300.76208337 -337.37109375 295.2890625 C-333.96208641 288.48585264 -332.90106479 283.90708224 -334.80859375 276.3515625 C-341.95981146 244.03723648 -338.88726626 212.01023251 -321.37109375 183.4140625 C-317.567287 177.75197402 -313.19935345 172.56203889 -308.80859375 167.3515625 C-307.83792969 166.08699219 -307.83792969 166.08699219 -306.84765625 164.796875 C-295.98132475 151.7656039 -277.8400437 140.67347951 -261.54882812 135.65551758 C-259.08016642 134.93949543 -259.08016642 134.93949543 -255.80859375 133.3515625 C-254.69348245 130.81477564 -254.69348245 130.81477564 -254.93359375 127.7890625 C-254.90072266 126.05076172 -254.90072266 126.05076172 -254.8671875 124.27734375 C-254.83818359 122.33408203 -254.83818359 122.33408203 -254.80859375 120.3515625 C-253.23419584 97.09850594 -246.95047286 76.36517731 -231.80859375 58.3515625 C-231.1228125 57.50335938 -230.43703125 56.65515625 -229.73046875 55.78125 C-220.09117665 44.39260488 -207.95520506 36.174685 -194.80859375 29.3515625 C-193.90882813 28.88105469 -193.0090625 28.41054687 -192.08203125 27.92578125 C-180.53344917 22.29105011 -168.88255782 19.49700139 -156.17797852 18.14038086 C-143.03459615 17.12663649 -143.03459615 17.12663649 -132.43359375 10.2265625 C-131.29664063 8.77443359 -131.29664063 8.77443359 -130.13671875 7.29296875 C-115.90153338 -10.69208927 -88.21032614 -17.92157239 -66.62109375 -20.7109375 C-42.30675715 -23.42101536 -18.16832807 -16.83576733 0 0 Z M-103.80859375 33.3515625 C-104.51371094 34.02832031 -105.21882812 34.70507812 -105.9453125 35.40234375 C-117.07597413 46.9994331 -121.40055484 60.62982335 -122.24609375 76.3515625 C-121.64718414 91.17457545 -115.64352801 106.07948197 -104.80859375 116.3515625 C-102.94637948 117.88802501 -101.07026297 119.40772978 -99.18359375 120.9140625 C-90.36604022 128.05208202 -90.36604022 128.05208202 -89.375 133.91796875 C-89.05049297 138.78557414 -89.25370085 142.4202659 -92.30859375 146.3515625 C-96.28260916 150.2232028 -100.47580159 152.21731693 -106.0390625 152.44140625 C-118.3688986 151.61375804 -127.89457648 142.74424202 -135.99609375 134.1015625 C-152.87570727 114.24726299 -159.61253469 88.77305402 -158.68359375 63.08203125 C-158.50802607 60.20277703 -158.50802607 60.20277703 -160.80859375 58.3515625 C-177.44720159 58.81224057 -191.65774289 68.37975278 -202.8125 80.01171875 C-213.24059065 92.23564497 -218.49049411 108.32812175 -218.12109375 124.3046875 C-216.85393894 136.65944686 -212.93326034 148.75168544 -204.80859375 158.3515625 C-204.14859375 158.3515625 -203.48859375 158.3515625 -202.80859375 158.3515625 C-202.80859375 159.0115625 -202.80859375 159.6715625 -202.80859375 160.3515625 C-200.75200382 161.95047201 -198.67986859 163.46864787 -196.55859375 164.9765625 C-190.01975739 169.82518294 -186.59631745 173.45017059 -185.24609375 181.8515625 C-186.10771738 187.21277623 -188.20956209 191.42306993 -192.640625 194.7109375 C-197.0103716 197.08973447 -201.78890012 198.96053746 -206.80859375 198.3515625 C-220.72854943 193.86125422 -229.36472857 182.73260185 -236.93359375 170.90625 C-238.61938851 168.09369045 -238.61938851 168.09369045 -241.80859375 167.3515625 C-259.82716209 171.79549512 -275.71225236 183.6236912 -286.80859375 198.3515625 C-287.29585937 198.97804687 -287.783125 199.60453125 -288.28515625 200.25 C-300.66249272 217.32437697 -304.38358099 240.06760655 -301.48339844 260.66064453 C-300.34047652 266.73259103 -298.49546267 272.57279961 -296.32421875 278.3515625 C-292.19043255 289.43768744 -292.19043255 289.43768744 -293.55859375 294.1640625 C-295.44907248 298.28042749 -298.23227491 301.78837814 -300.90234375 305.42578125 C-313.342386 324.51920676 -316.70521328 349.11483158 -312.62109375 371.2890625 C-308.86670527 387.36688356 -301.39124817 404.23681985 -287.80859375 414.3515625 C-286.81859375 414.3515625 -285.82859375 414.3515625 -284.80859375 414.3515625 C-283.59032505 412.57550702 -283.59032505 412.57550702 -282.64453125 410.21484375 C-282.24951416 409.33368896 -281.85449707 408.45253418 -281.44750977 407.54467773 C-281.03041748 406.59407471 -280.6133252 405.64347168 -280.18359375 404.6640625 C-268.24324867 378.62568893 -246.49939319 354.84150649 -219.78125 343.4140625 C-214.05292537 341.36661927 -209.93990726 340.74769034 -204.05859375 342.4140625 C-199.79053574 344.9584817 -197.06118611 347.84637778 -194.80859375 352.3515625 C-194.53515625 354.70703125 -194.53515625 354.70703125 -194.43359375 357.5390625 C-194.38460937 358.46074219 -194.335625 359.38242187 -194.28515625 360.33203125 C-195.30640103 366.22324182 -198.95262701 369.92137586 -203.6640625 373.37890625 C-205.10072497 374.35980791 -206.54502723 375.3295975 -207.99609375 376.2890625 C-209.51065228 377.32457744 -211.02367828 378.36233747 -212.53515625 379.40234375 C-213.26508789 379.9020166 -213.99501953 380.40168945 -214.74707031 380.91650391 C-218.92124923 383.8222149 -223.13386117 386.83031997 -226.80859375 390.3515625 C-226.80859375 391.0115625 -226.80859375 391.6715625 -226.80859375 392.3515625 C-227.46859375 392.3515625 -228.12859375 392.3515625 -228.80859375 392.3515625 C-228.80859375 393.0115625 -228.80859375 393.6715625 -228.80859375 394.3515625 C-229.79859375 394.6815625 -230.78859375 395.0115625 -231.80859375 395.3515625 C-247.04629143 410.56017556 -256.90763543 432.84118256 -257.80859375 454.3515625 C-257.86015625 455.28613281 -257.91171875 456.22070312 -257.96484375 457.18359375 C-258.65222933 480.41149829 -250.45814231 502.57104124 -234.69140625 519.65625 C-232.98314479 521.57460753 -232.98314479 521.57460753 -230.80859375 521.3515625 C-230.43541016 522.2178125 -230.43541016 522.2178125 -230.0546875 523.1015625 C-226.29694523 529.88670215 -214.4225276 534.38040513 -207.328125 536.73828125 C-203.6546422 537.63244683 -200.57082921 537.69991764 -196.80859375 537.3515625 C-195.27996783 535.82293658 -195.48746729 534.27278317 -195.265625 532.14453125 C-191.74724479 501.16871185 -180.94060677 473.77063913 -156.43359375 453.375 C-145.93243932 445.28036013 -130.24712576 435.32115555 -116.43359375 436.4765625 C-111.69438431 437.62050961 -109.07457749 439.15591119 -105.55859375 442.4765625 C-103.17059521 446.39970296 -102.6203034 449.78552162 -102.80859375 454.3515625 C-104.39384664 459.94657268 -106.98120799 463.24754366 -111.80859375 466.3515625 C-114.52266531 467.85376955 -117.26282062 469.30165085 -120.00390625 470.75390625 C-124.30189618 473.20220413 -128.01790999 476.19265937 -131.80859375 479.3515625 C-132.4634375 479.84914063 -133.11828125 480.34671875 -133.79296875 480.859375 C-147.78033927 491.99332193 -156.3674806 509.88990628 -158.80859375 527.3515625 C-160.63601693 548.90027199 -156.0428012 568.31394895 -143.80859375 586.3515625 C-141.63283346 588.88994951 -139.29555071 591.1235381 -136.80859375 593.3515625 C-136.00421875 594.1971875 -135.19984375 595.0428125 -134.37109375 595.9140625 C-118.72902568 610.79310286 -99.95663296 617.02463478 -78.67944336 616.75219727 C-62.28729335 616.23488228 -46.56834443 610.13561019 -34.80859375 598.3515625 C-34.13174753 597.0233677 -33.46215711 595.69136739 -32.80859375 594.3515625 C-32.14859375 594.3515625 -31.48859375 594.3515625 -30.80859375 594.3515625 C-29.24506661 592.38563446 -27.86786033 590.44662418 -26.49609375 588.3515625 C-26.11775391 587.81789063 -25.73941406 587.28421875 -25.34960938 586.734375 C-18.15837635 575.78325872 -16.03154687 562.75163518 -15.93359375 549.9140625 C-15.90641484 548.49811236 -15.87838199 547.08217842 -15.84960938 545.66625977 C-15.57297559 528.55590963 -16.0976982 511.43224766 -16.47119141 494.3269043 C-16.78343962 479.45640663 -16.8147516 464.6613409 -16.12695312 449.80249023 C-16.07345703 448.63016846 -16.01996094 447.45784668 -15.96484375 446.25 C-15.91134766 445.26692871 -15.85785156 444.28385742 -15.80273438 443.27099609 C-15.73693346 440.28299047 -15.73693346 440.28299047 -16.30179322 437.09059823 C-16.78358781 433.53604946 -16.92955822 430.19102865 -16.92326164 426.6075573 C-16.9235167 425.96348151 -16.92377175 425.31940573 -16.92403454 424.6558125 C-16.92367502 422.50682614 -16.9161533 420.35792629 -16.90866089 418.20895386 C-16.90694784 416.64887856 -16.90568608 415.08880271 -16.90483582 413.5287267 C-16.90125367 409.24842828 -16.89145474 404.96816318 -16.88068223 400.68787766 C-16.87018689 396.06876348 -16.86556532 391.44964325 -16.86035156 386.83052063 C-16.85064432 378.82685589 -16.83760376 370.82320226 -16.82262802 362.81954575 C-16.79923998 350.16316012 -16.7862496 337.50677367 -16.77493286 324.85037231 C-16.77093147 320.51814837 -16.76686277 316.1859245 -16.76277351 311.85370064 C-16.76175429 310.77104863 -16.76073506 309.68839662 -16.75968494 308.57293697 C-16.74794487 296.25239866 -16.73406604 283.93186308 -16.71923828 271.61132812 C-16.71788585 270.48525367 -16.71653342 269.35917922 -16.71514 268.1989813 C-16.69296607 249.95642671 -16.66309604 231.71389058 -16.63127087 213.47135065 C-16.59885941 194.73207568 -16.5780061 175.99281035 -16.5669986 157.25351059 C-16.55978247 145.70090875 -16.54310604 134.14839832 -16.51419784 122.59583004 C-16.49517061 114.6745945 -16.48711326 106.75339533 -16.48760282 98.83213715 C-16.48753992 94.26546828 -16.48261857 89.69894276 -16.46443558 85.13230705 C-16.447861 80.94494744 -16.44536908 76.75781537 -16.45368434 72.57043339 C-16.4542545 71.06233877 -16.4498157 69.55423134 -16.43962298 68.04617105 C-16.367736 56.79879382 -16.94452918 45.24559373 -22.74609375 35.2890625 C-23.22949219 34.43183594 -23.71289062 33.57460937 -24.2109375 32.69140625 C-25.88790956 30.23540071 -27.53857209 28.27508379 -29.80859375 26.3515625 C-30.79859375 26.3515625 -31.78859375 26.3515625 -32.80859375 26.3515625 C-33.13859375 25.3615625 -33.46859375 24.3715625 -33.80859375 23.3515625 C-54.67742945 8.60775195 -86.60346454 16.82843841 -103.80859375 33.3515625 Z M23.19140625 163.3515625 C21.80919307 171.38614605 22.04627109 179.75921632 22.05769348 187.88870239 C22.05542792 189.09246423 22.05316237 190.29622606 22.05082816 191.53646553 C22.04563224 194.84212808 22.04483646 198.1477358 22.04602253 201.45339847 C22.04622808 205.03214826 22.04069341 208.61089018 22.03596497 212.18963623 C22.02769283 219.18579643 22.02491174 226.1819482 22.02435259 233.17811288 C22.02387607 238.86614787 22.02181458 244.55418009 22.01865196 250.2422142 C22.00985706 266.38989454 22.0052311 282.53756826 22.00598244 298.68525101 C22.00602239 299.55401564 22.00606235 300.42278027 22.00610352 301.31787109 C22.0061444 302.18770271 22.00618528 303.05753433 22.0062274 303.95372449 C22.00663419 318.06264464 21.99705317 332.17153815 21.98296515 346.2804506 C21.96859392 360.78797988 21.96169528 375.29549617 21.96255893 389.80303276 C21.96289049 397.93984789 21.96016061 406.07663505 21.94938087 414.21344376 C21.94026636 421.1371835 21.93810868 428.06088256 21.9448903 434.98462571 C21.94814985 438.51399086 21.94823249 442.04327798 21.93953705 445.57263565 C21.93019333 449.40458964 21.93646226 453.23643032 21.94416809 457.06838989 C21.93902453 458.17501484 21.93388096 459.28163979 21.92858154 460.42179883 C21.96608298 470.0473701 21.96608298 470.0473701 24.19140625 479.3515625 C32.17566314 484.67440042 47.09372864 481.56073599 56.12890625 479.7890625 C95.48333748 471.38281486 130.81043895 447.89085683 153.0078125 414.20361328 C178.5333744 374.2620059 186.28401679 327.60684303 176.5703125 281.3984375 C167.811512 241.88340427 143.43287737 207.52418481 109.42138672 185.72900391 C94.91328327 176.76746245 78.42264087 168.07651306 61.359375 165.67578125 C59.19140625 165.3515625 59.19140625 165.3515625 56.25390625 164.3515625 C48.52762561 161.82869535 40.64769678 161.16158559 32.56640625 161.1015625 C31.86725098 161.09237793 31.1680957 161.08319336 30.44775391 161.07373047 C26.36765317 160.99013192 26.36765317 160.99013192 23.19140625 163.3515625 Z M101.19140625 183.3515625 C103.19140625 184.3515625 103.19140625 184.3515625 103.19140625 184.3515625 Z M67.19140625 474.3515625 C69.19140625 475.3515625 69.19140625 475.3515625 69.19140625 475.3515625 Z " transform="translate(390.80859375,53.6484375)" style="fill: #1D9BFF;"/><path d="M0 0 C2.78845757 1.92849925 5.52684917 3.9180146 8.25 5.9375 C8.91185303 6.42750488 9.57370605 6.91750977 10.25561523 7.42236328 C18.72547158 13.85890197 25.02644722 21.22276824 31 30 C31.67289062 30.97839844 32.34578125 31.95679688 33.0390625 32.96484375 C43.97191007 49.70180924 51.72869962 71.36186171 49.75 91.55078125 C48.68574965 96.59646819 46.52140543 100.08699339 42.4296875 103.19140625 C38.24391199 105.8849434 35.04688848 106.63086106 30 106 C24.57203224 104.31545828 20.75178065 102.02415701 18 97 C15.63523316 90.7956655 14.0804332 84.3908361 12.5625 77.9375 C7.52632213 57.55169488 -4.57623266 41.51548986 -22.3125 30.578125 C-28.75503578 26.51453171 -28.75503578 26.51453171 -36 25 C-36 24.34 -36 23.68 -36 23 C-38.68660783 22.35025795 -41.37418674 21.70511582 -44.0625 21.0625 C-44.81466797 20.88009766 -45.56683594 20.69769531 -46.34179688 20.50976562 C-49.87918093 19.66753133 -53.22257703 18.97697479 -56.8515625 18.6015625 C-60 18 -60 18 -61.92578125 16.36328125 C-66.27467991 9.9318114 -68.68762646 5.05761776 -67.53515625 -2.82421875 C-66.35043281 -7.64094104 -63.84652713 -10.34746867 -60 -13.3125 C-43.1124233 -22.8117619 -14.63094687 -9.37385632 0 0 Z " transform="translate(253,313)" style="fill: #1D9BFF;"/><path d="M0 0 C1.65 0 3.3 0 5 0 C5 0.33 5 0.66 5 1 C3.35 1 1.7 1 0 1 C0 0.67 0 0.34 0 0 Z " transform="translate(345,32)" style="fill: #148AFF;"/><path d="M0 0 C0.99 0.495 0.99 0.495 2 1 C1.01 1.495 1.01 1.495 0 2 C0 1.34 0 0.68 0 0 Z " transform="translate(522,259)" style="fill: #00BFFF;"/><path d="M0 0 C4 1 4 1 4 1 Z " transform="translate(321,32)" style="fill: #00BFFF;"/><path d="M0 0 C0.66 0.66 1.32 1.32 2 2 C1.34 2 0.68 2 0 2 C0 1.34 0 0.68 0 0 Z " transform="translate(249,691)" style="fill: #00D4FF;"/><path d="M0 0 C0.99 0.495 0.99 0.495 2 1 C1.01 1.495 1.01 1.495 0 2 C0 1.34 0 0.68 0 0 Z " transform="translate(566,656)" style="fill: #00FFFF;"/><path d="M0 0 C3 1 3 1 3 1 Z " transform="translate(145,223)" style="fill: #00E2FF;"/><path d="M0 0 C0.99 0.495 0.99 0.495 2 1 C1.01 1.495 1.01 1.495 0 2 C0 1.34 0 0.68 0 0 Z " transform="translate(351,32)" style="fill: #008EFF;"/><path d="M0 0 C2 1 2 1 2 1 Z " transform="translate(267,701)" style="fill: #00FFFF;"/><path d="" transform="translate(0,0)" style="fill: #00FFFF;"/><path d="" transform="translate(0,0)" style="fill: #00FFFF;"/><path d="M0 0 C2 1 2 1 2 1 Z " transform="translate(266,488)" style="fill: #0080FF;"/><path d="" transform="translate(0,0)" style="fill: #00BFFF;"/><path d="" transform="translate(0,0)" style="fill: #00D4FF;"/><path d="M0 0 C2 1 2 1 2 1 Z " transform="translate(198,332)" style="fill: #00FFFF;"/><path d="" transform="translate(0,0)" style="fill: #00FFFF;"/><path d="" transform="translate(0,0)" style="fill: #00FFFF;"/><path d="M0 0 C2 1 2 1 2 1 Z " transform="translate(467,105)" style="fill: #00FFFF;"/><path d="" transform="translate(0,0)" style="fill: #00FFFF;"/><path d="M0 0 C2 1 2 1 2 1 Z " transform="translate(217,73)" style="fill: #0080FF;"/><path d="M0 0 C2 1 2 1 2 1 Z " transform="translate(506,64)" style="fill: #00BFFF;"/><path d="M0 0 C2 1 2 1 2 1 Z " transform="translate(500,64)" style="fill: #00FFFF;"/><path d="M0 0 C2 1 2 1 2 1 Z " transform="translate(374,40)" style="fill: #00FFFF;"/><path d="M0 0 C2 1 2 1 2 1 Z " transform="translate(290,40)" style="fill: #198CFF;"/><path d="" transform="translate(0,0)" style="fill: #0080FF;"/><path d="" transform="translate(0,0)" style="fill: #00FFFF;"/><path d="" transform="translate(0,0)" style="fill: #00AAFF;"/><path d="" transform="translate(0,0)" style="fill: #0080FF;"/><path d="" transform="translate(0,0)" style="fill: #00FFFF;"/><path d="" transform="translate(0,0)" style="fill: #0080FF;"/><path d="" transform="translate(0,0)" style="fill: #00FFFF;"/><path d="" transform="translate(0,0)" style="fill: #0080FF;"/><path d="" transform="translate(0,0)" style="fill: #00FFFF;"/><path d="" transform="translate(0,0)" style="fill: #00FFFF;"/><path d="" transform="translate(0,0)" style="fill: #00FFFF;"/><path d="" transform="translate(0,0)" style="fill: #00FFFF;"/><path d="" transform="translate(0,0)" style="fill: #00FFFF;"/><path d="" transform="translate(0,0)" style="fill: #0080FF;"/><path d="" transform="translate(0,0)" style="fill: #00FFFF;"/><path d="" transform="translate(0,0)" style="fill: #0080FF;"/><path d="" transform="translate(0,0)" style="fill: #00FFFF;"/><path d="" transform="translate(0,0)" style="fill: #00FFFF;"/><path d="" transform="translate(0,0)" style="fill: #0080FF;"/><path d="" transform="translate(0,0)" style="fill: #00FFFF;"/><path d="" transform="translate(0,0)" style="fill: #00FFFF;"/><path d="" transform="translate(0,0)" style="fill: #00FFFF;"/><path d="" transform="translate(0,0)" style="fill: #00FFFF;"/><path d="" transform="translate(0,0)" style="fill: #00FFFF;"/><path d="" transform="translate(0,0)" style="fill: #00FFFF;"/><path d="" transform="translate(0,0)" style="fill: #00FFFF;"/><path d="" transform="translate(0,0)" style="fill: #0080FF;"/><path d="" transform="translate(0,0)" style="fill: #0080FF;"/><path d="" transform="translate(0,0)" style="fill: #00AAFF;"/><path d="" transform="translate(0,0)" style="fill: #00FFFF;"/><path d="" transform="translate(0,0)" style="fill: #2AAAFF;"/><path d="" transform="translate(0,0)" style="fill: #00FFFF;"/><path d="" transform="translate(0,0)" style="fill: #0080FF;"/><path d="" transform="translate(0,0)" style="fill: #0080FF;"/><path d="" transform="translate(0,0)" style="fill: #00FFFF;"/><path d="" transform="translate(0,0)" style="fill: #0080FF;"/><path d="" transform="translate(0,0)" style="fill: #00FFFF;"/><path d="" transform="translate(0,0)" style="fill: #00FFFF;"/><path d="" transform="translate(0,0)" style="fill: #00FFFF;"/><path d="" transform="translate(0,0)" style="fill: #00FFFF;"/><path d="" transform="translate(0,0)" style="fill: #00FFFF;"/><path d="" transform="translate(0,0)" style="fill: #00FFFF;"/><path d="" transform="translate(0,0)" style="fill: #0080FF;"/><path d="" transform="translate(0,0)" style="fill: #00FFFF;"/><path d="" transform="translate(0,0)" style="fill: #0080FF;"/><path d="" transform="translate(0,0)" style="fill: #00FFFF;"/><path d="" transform="translate(0,0)" style="fill: #0080FF;"/><path d="" transform="translate(0,0)" style="fill: #00FFFF;"/><path d="" transform="translate(0,0)" style="fill: #00FFFF;"/><path d="" transform="translate(0,0)" style="fill: #00AAFF;"/><path d="" transform="translate(0,0)" style="fill: #00FFFF;"/><path d="" transform="translate(0,0)" style="fill: #0080FF;"/><path d="" transform="translate(0,0)" style="fill: #00AAFF;"/><path d="" transform="translate(0,0)" style="fill: #00FFFF;"/><path d="" transform="translate(0,0)" style="fill: #00FFFF;"/><path d="" transform="translate(0,0)" style="fill: #00FFFF;"/><path d="" transform="translate(0,0)" style="fill: #00FFFF;"/><path d="" transform="translate(0,0)" style="fill: #00FFFF;"/><path d="" transform="translate(0,0)" style="fill: #00FFFF;"/><path d="" transform="translate(0,0)" style="fill: #0080FF;"/><path d="" transform="translate(0,0)" style="fill: #00AAFF;"/><path d="" transform="translate(0,0)" style="fill: #00FFFF;"/><path d="" transform="translate(0,0)" style="fill: #00FFFF;"/><path d="" transform="translate(0,0)" style="fill: #0080FF;"/><path d="" transform="translate(0,0)" style="fill: #00FFFF;"/><path d="" transform="translate(0,0)" style="fill: #00AAFF;"/><path d="" transform="translate(0,0)" style="fill: #00FFFF;"/><path d="" transform="translate(0,0)" style="fill: #00FFFF;"/><path d="" transform="translate(0,0)" style="fill: #0080FF;"/><path d="" transform="translate(0,0)" style="fill: #00FFFF;"/><path d="" transform="translate(0,0)" style="fill: #00FFFF;"/><path d="" transform="translate(0,0)" style="fill: #0080FF;"/><path d="" transform="translate(0,0)" style="fill: #00FFFF;"/><path d="" transform="translate(0,0)" style="fill: #00FFFF;"/><path d="" transform="translate(0,0)" style="fill: #00FFFF;"/><path d="" transform="translate(0,0)" style="fill: #00FFFF;"/><path d="" transform="translate(0,0)" style="fill: #00FFFF;"/><path d="" transform="translate(0,0)" style="fill: #00FFFF;"/><path d="" transform="translate(0,0)" style="fill: #00FFFF;"/><path d="" transform="translate(0,0)" style="fill: #3399FF;"/><path d="" transform="translate(0,0)" style="fill: #00FFFF;"/><path d="" transform="translate(0,0)" style="fill: #00FFFF;"/><path d="" transform="translate(0,0)" style="fill: #00FFFF;"/><path d="" transform="translate(0,0)" style="fill: #00FFFF;"/><path d="" transform="translate(0,0)" style="fill: #0080FF;"/><path d="" transform="translate(0,0)" style="fill: #00FFFF;"/><path d="" transform="translate(0,0)" style="fill: #00FFFF;"/><path d="" transform="translate(0,0)" style="fill: #00FFFF;"/><path d="" transform="translate(0,0)" style="fill: #00FFFF;"/><path d="" transform="translate(0,0)" style="fill: #0080FF;"/><path d="" transform="translate(0,0)" style="fill: #0080FF;"/><path d="" transform="translate(0,0)" style="fill: #0080FF;"/><path d="" transform="translate(0,0)" style="fill: #00FFFF;"/><path d="" transform="translate(0,0)" style="fill: #00FFFF;"/><path d="" transform="translate(0,0)" style="fill: #00FFFF;"/><path d="" transform="translate(0,0)" style="fill: #00FFFF;"/><path d="" transform="translate(0,0)" style="fill: #0080FF;"/><path d="" transform="translate(0,0)" style="fill: #0080FF;"/><path d="" transform="translate(0,0)" style="fill: #00FFFF;"/><path d="" transform="translate(0,0)" style="fill: #00FFFF;"/><path d="" transform="translate(0,0)" style="fill: #00FFFF;"/><path d="" transform="translate(0,0)" style="fill: #0080FF;"/><path d="" transform="translate(0,0)" style="fill: #00FFFF;"/><path d="" transform="translate(0,0)" style="fill: #00FFFF;"/><path d="" transform="translate(0,0)" style="fill: #0080FF;"/><path d="" transform="translate(0,0)" style="fill: #00AAFF;"/><path d="" transform="translate(0,0)" style="fill: #00FFFF;"/><path d="" transform="translate(0,0)" style="fill: #00FFFF;"/><path d="" transform="translate(0,0)" style="fill: #00AAFF;"/><path d="" transform="translate(0,0)" style="fill: #00FFFF;"/><path d="" transform="translate(0,0)" style="fill: #00FFFF;"/><path d="" transform="translate(0,0)" style="fill: #0080FF;"/><path d="" transform="translate(0,0)" style="fill: #00AAFF;"/><path d="" transform="translate(0,0)" style="fill: #0080FF;"/><path d="" transform="translate(0,0)" style="fill: #00FFFF;"/><path d="" transform="translate(0,0)" style="fill: #00FFFF;"/><path d="" transform="translate(0,0)" style="fill: #00FFFF;"/><path d="" transform="translate(0,0)" style="fill: #00FFFF;"/><path d="" transform="translate(0,0)" style="fill: #0080FF;"/><path d="" transform="translate(0,0)" style="fill: #00FFFF;"/><path d="" transform="translate(0,0)" style="fill: #0080FF;"/><path d="" transform="translate(0,0)" style="fill: #0080FF;"/><path d="" transform="translate(0,0)" style="fill: #00FFFF;"/><path d="" transform="translate(0,0)" style="fill: #00FFFF;"/><path d="" transform="translate(0,0)" style="fill: #00FFFF;"/><path d="" transform="translate(0,0)" style="fill: #00FFFF;"/><path d="" transform="translate(0,0)" style="fill: #00FFFF;"/><path d="" transform="translate(0,0)" style="fill: #00FFFF;"/><path d="" transform="translate(0,0)" style="fill: #00FFFF;"/><path d="" transform="translate(0,0)" style="fill: #00FFFF;"/><path d="" transform="translate(0,0)" style="fill: #00FFFF;"/><path d="" transform="translate(0,0)" style="fill: #00FFFF;"/><path d="" transform="translate(0,0)" style="fill: #00FFFF;"/><path d="" transform="translate(0,0)" style="fill: #00FFFF;"/><path d="" transform="translate(0,0)" style="fill: #0080FF;"/><path d="" transform="translate(0,0)" style="fill: #00FFFF;"/><path d="" transform="translate(0,0)" style="fill: #00FFFF;"/><path d="" transform="translate(0,0)" style="fill: #3399FF;"/><path d="" transform="translate(0,0)" style="fill: #00FFFF;"/><path d="" transform="translate(0,0)" style="fill: #00FFFF;"/><path d="" transform="translate(0,0)" style="fill: #00FFFF;"/><path d="" transform="translate(0,0)" style="fill: #0080FF;"/><path d="" transform="translate(0,0)" style="fill: #00FFFF;"/><path d="" transform="translate(0,0)" style="fill: #00FFFF;"/><path d="" transform="translate(0,0)" style="fill: #0080FF;"/><path d="" transform="translate(0,0)" style="fill: #0080FF;"/><path d="" transform="translate(0,0)" style="fill: #0080FF;"/><path d="" transform="translate(0,0)" style="fill: #00FFFF;"/><path d="" transform="translate(0,0)" style="fill: #00FFFF;"/><path d="" transform="translate(0,0)" style="fill: #00AAFF;"/><path d="" transform="translate(0,0)" style="fill: #00FFFF;"/><path d="" transform="translate(0,0)" style="fill: #00FFFF;"/><path d="" transform="translate(0,0)" style="fill: #0080FF;"/><path d="" transform="translate(0,0)" style="fill: #00FFFF;"/><path d="" transform="translate(0,0)" style="fill: #00FFFF;"/><path d="" transform="translate(0,0)" style="fill: #00FFFF;"/><path d="" transform="translate(0,0)" style="fill: #00FFFF;"/><path d="" transform="translate(0,0)" style="fill: #00AAFF;"/><path d="" transform="translate(0,0)" style="fill: #00FFFF;"/><path d="" transform="translate(0,0)" style="fill: #00FFFF;"/><path d="" transform="translate(0,0)" style="fill: #0080FF;"/><path d="" transform="translate(0,0)" style="fill: #0080FF;"/><path d="" transform="translate(0,0)" style="fill: #0080FF;"/><path d="" transform="translate(0,0)" style="fill: #0080FF;"/><path d="" transform="translate(0,0)" style="fill: #00FFFF;"/><path d="" transform="translate(0,0)" style="fill: #00FFFF;"/><path d="" transform="translate(0,0)" style="fill: #00AAFF;"/><path d="" transform="translate(0,0)" style="fill: #00FFFF;"/><path d="" transform="translate(0,0)" style="fill: #00FFFF;"/><path d="" transform="translate(0,0)" style="fill: #0080FF;"/><path d="" transform="translate(0,0)" style="fill: #00FFFF;"/><path d="" transform="translate(0,0)" style="fill: #0080FF;"/><path d="" transform="translate(0,0)" style="fill: #0080FF;"/><path d="" transform="translate(0,0)" style="fill: #00FFFF;"/><path d="" transform="translate(0,0)" style="fill: #00FFFF;"/><path d="" transform="translate(0,0)" style="fill: #00FFFF;"/><path d="" transform="translate(0,0)" style="fill: #0080FF;"/><path d="" transform="translate(0,0)" style="fill: #0080FF;"/><path d="" transform="translate(0,0)" style="fill: #00FFFF;"/><path d="" transform="translate(0,0)" style="fill: #0080FF;"/><path d="" transform="translate(0,0)" style="fill: #00FFFF;"/><path d="" transform="translate(0,0)" style="fill: #00FFFF;"/><path d="" transform="translate(0,0)" style="fill: #00FFFF;"/><path d="" transform="translate(0,0)" style="fill: #0080FF;"/><path d="" transform="translate(0,0)" style="fill: #00FFFF;"/><path d="" transform="translate(0,0)" style="fill: #00FFFF;"/><path d="" transform="translate(0,0)" style="fill: #00FFFF;"/><path d="" transform="translate(0,0)" style="fill: #00FFFF;"/></svg>